<?xml version="1.0" encoding="utf-8"?>
<!DOCTYPE svg
  PUBLIC '-//W3C//DTD SVG 1.0//EN'
  'http://www.w3.org/TR/2001/REC-SVG-20010904/DTD/svg10.dtd'>
<svg width="455" height="225" preserveAspectRatio="xMinYMin meet" viewBox="0 0 455 225" xmlns="http://www.w3.org/2000/svg" version="1.0" fill-rule="evenodd" xmlns:xlink="http://www.w3.org/1999/xlink">
	<title>...</title>
	<desc>...</desc>
	<clipPath id="clip">
		<rect x="0" y="0" width="455" height="225"/>
	</clipPath>
	<g id="group" transform="scale(1,-1) translate(0,-225)" style="clip-path: url(#clip)">
		<g transform="">
			<rect x="0" y="0" width="455" height="225" rx="8" ry="8" style="stroke: rgb(88%,90%,94%); stroke-linecap: butt; stroke-width: 1; fill: rgb(100%,98%,98%); fill-rule: evenodd;"/>
			<rect x="18" y="154" width="82" height="44" rx="4" ry="4" style="stroke: rgb(14%,35%,47%); stroke-linecap: butt; stroke-width: 1; fill: rgb(93%,96%,98%); fill-rule: evenodd;"/>
			<text x="40.1036" y="181" style="font-family: Times-Roman; font-size: 7.2px;fill: rgb(20%,25%,33%); stroke:none;" transform="translate(0,362) scale(1,-1)">External cost</text>
			<text x="45.875" y="166" style="font-family: Times-Roman; font-size: 7.0px;fill: rgb(62%,7%,22%); stroke:none;" transform="translate(0,332) scale(1,-1)">too much</text>
			<path d="M 59,154 L 59,124 Z" style="stroke: rgb(58%,63%,72%); stroke-linecap: butt; stroke-width: 1.2;"/>
			<rect x="107" y="154" width="82" height="44" rx="4" ry="4" style="stroke: rgb(14%,35%,47%); stroke-linecap: butt; stroke-width: 1; fill: rgb(93%,96%,98%); fill-rule: evenodd;"/>
			<text x="124.906" y="181" style="font-family: Times-Roman; font-size: 7.2px;fill: rgb(20%,25%,33%); stroke:none;" transform="translate(0,362) scale(1,-1)">External benefit</text>
			<text x="136.233" y="166" style="font-family: Times-Roman; font-size: 7.0px;fill: rgb(62%,7%,22%); stroke:none;" transform="translate(0,332) scale(1,-1)">too little</text>
			<path d="M 148,154 L 148,124 Z" style="stroke: rgb(58%,63%,72%); stroke-linecap: butt; stroke-width: 1.2;"/>
			<rect x="196" y="154" width="82" height="44" rx="4" ry="4" style="stroke: rgb(14%,35%,47%); stroke-linecap: butt; stroke-width: 1; fill: rgb(93%,96%,98%); fill-rule: evenodd;"/>
			<text x="215.202" y="181" style="font-family: Times-Roman; font-size: 7.2px;fill: rgb(20%,25%,33%); stroke:none;" transform="translate(0,362) scale(1,-1)">Merit / demerit</text>
			<text x="216.6825" y="166" style="font-family: Times-Roman; font-size: 7.0px;fill: rgb(62%,7%,22%); stroke:none;" transform="translate(0,332) scale(1,-1)">wrong amount</text>
			<path d="M 237,154 L 237,124 Z" style="stroke: rgb(58%,63%,72%); stroke-linecap: butt; stroke-width: 1.2;"/>
			<rect x="285" y="154" width="72" height="44" rx="4" ry="4" style="stroke: rgb(14%,35%,47%); stroke-linecap: butt; stroke-width: 1; fill: rgb(93%,96%,98%); fill-rule: evenodd;"/>
			<text x="303.6984" y="181" style="font-family: Times-Roman; font-size: 7.2px;fill: rgb(20%,25%,33%); stroke:none;" transform="translate(0,362) scale(1,-1)">Public good</text>
			<text x="303.2095" y="166" style="font-family: Times-Roman; font-size: 7.0px;fill: rgb(62%,7%,22%); stroke:none;" transform="translate(0,332) scale(1,-1)">not provided</text>
			<path d="M 321,154 L 321,124 Z" style="stroke: rgb(58%,63%,72%); stroke-linecap: butt; stroke-width: 1.2;"/>
			<rect x="364" y="154" width="72" height="44" rx="4" ry="4" style="stroke: rgb(14%,35%,47%); stroke-linecap: butt; stroke-width: 1; fill: rgb(93%,96%,98%); fill-rule: evenodd;"/>
			<text x="384.9988" y="181" style="font-family: Times-Roman; font-size: 7.2px;fill: rgb(20%,25%,33%); stroke:none;" transform="translate(0,362) scale(1,-1)">Monopoly</text>
			<text x="386.9765" y="166" style="font-family: Times-Roman; font-size: 7.0px;fill: rgb(62%,7%,22%); stroke:none;" transform="translate(0,332) scale(1,-1)">restricted</text>
			<path d="M 400,154 L 400,124 Z" style="stroke: rgb(58%,63%,72%); stroke-linecap: butt; stroke-width: 1.2;"/>
			<rect x="92" y="82" width="270" height="42" rx="5" ry="5" style="stroke: rgb(62%,7%,22%); stroke-linecap: butt; stroke-width: 1; fill: rgb(100%,94%,96%); fill-rule: evenodd;"/>
			<text x="135.21890000000002" y="106" style="font-family: Times-Roman; font-size: 8.1px;fill: rgb(62%,7%,22%); stroke:none;" transform="translate(0,212) scale(1,-1)">market outcome differs from socially efficient allocation</text>
			<text x="146.2364" y="91" style="font-family: Times-Roman; font-size: 7.4px;fill: rgb(20%,25%,33%); stroke:none;" transform="translate(0,182) scale(1,-1)">price / output / access does not reflect all social effects</text>
			<path d="M 227,82 L 227,58 Z" style="stroke: rgb(58%,63%,72%); stroke-linecap: butt; stroke-width: 1.2;"/>
			<rect x="92" y="18" width="270" height="40" rx="5" ry="5" style="stroke: rgb(71%,47%,12%); stroke-linecap: butt; stroke-width: 1; fill: rgb(100%,97%,90%); fill-rule: evenodd;"/>
			<text x="161.52710000000002" y="41" style="font-family: Times-Roman; font-size: 8.2px;fill: rgb(71%,47%,12%); stroke:none;" transform="translate(0,82) scale(1,-1)">match the policy to the source of failure</text>
			<text x="143.95884999999998" y="27" style="font-family: Times-Roman; font-size: 7.3px;fill: rgb(20%,25%,33%); stroke:none;" transform="translate(0,54) scale(1,-1)">tax / subsidy / regulation / provision / competition policy</text>
		</g>
	</g>
</svg>
